<svg xmlns="http://www.w3.org/2000/svg" viewBox="-300.5 -1071 6482.1 2511" role="img" aria-label="Arreglos Express Madrid">
<path fill="#FFFFFF" d="M312.6 -799.5H486.2A46.3 46.3 0 0 1 532.5 -753.2V-643.2A46.3 46.3 0 0 1 486.2 -596.9H312.6A46.3 46.3 0 0 1 266.3 -643.2V-753.2A46.3 46.3 0 0 1 312.6 -799.5Z"/><path fill="#FFFFFF" d="M309.7 1226.4L338.6 1226.4L324.1 1313.2Z"/><path fill="#FFFFFF" d="M-220 1284.2H2627.8A40.5 40.5 0 0 1 2668.4 1324.8V1359.5A40.5 40.5 0 0 1 2627.8 1400H-220A40.5 40.5 0 0 1 -260.5 1359.5V1324.8A40.5 40.5 0 0 1 -220 1284.2Z"/><path fill="#FFFFFF" d="M2271.9 -751.5H2300.8A17.4 17.4 0 0 1 2318.2 -734.1V-637.4A17.4 17.4 0 0 1 2300.8 -620.1H2271.9A17.4 17.4 0 0 1 2254.5 -637.4V-734.1A17.4 17.4 0 0 1 2271.9 -751.5Z"/><path fill="#FFFFFF" d="M2176.9 -775.8H2395.7A16.2 16.2 0 0 1 2411.9 -759.6V-743.4A16.2 16.2 0 0 1 2395.7 -727.2H2176.9A16.2 16.2 0 0 1 2160.7 -743.4V-759.6A16.2 16.2 0 0 1 2176.9 -775.8Z"/><path fill="#FFFFFF" d="M2176.9 -1031H2395.7A16.2 16.2 0 0 1 2411.9 -1014.8V-998.6A16.2 16.2 0 0 1 2395.7 -982.4H2176.9A16.2 16.2 0 0 1 2160.7 -998.6V-1014.8A16.2 16.2 0 0 1 2176.9 -1031Z"/><path fill="#FFFFFF" d="M2835.6 1400L2633.6 1400L2942.6 700L3137.6 700L3447.6 1400L3241.6 1400L2999.6 797L3077.6 797L2835.6 1400ZM3246.6 1264L2802.6 1264L2853.6 1118L3195.6 1118L3246.6 1264ZM3834.6 1400L3503.6 1400L3503.6 700L3834.6 700Q3950.6 700 4038.6 743Q4126.6 786 4176.1 864Q4225.6 942 4225.6 1050L4225.6 1050Q4225.6 1157 4176.1 1235.5Q4126.6 1314 4038.6 1357Q3950.6 1400 3834.6 1400L3834.6 1400ZM3701.6 858L3701.6 1242L3826.6 1242Q3886.6 1242 3931.1 1219.5Q3975.6 1197 4000.6 1153.5Q4025.6 1110 4025.6 1050L4025.6 1050Q4025.6 989 4000.6 946Q3975.6 903 3931.1 880.5Q3886.6 858 3826.6 858L3826.6 858L3701.6 858ZM4527.6 1400L4329.6 1400L4329.6 700L4642.6 700Q4795.6 700 4878.1 769.5Q4960.6 839 4960.6 959L4960.6 959Q4960.6 1038 4922.6 1095.5Q4884.6 1153 4815.1 1183.5Q4745.6 1214 4649.6 1214L4649.6 1214L4439.6 1214L4527.6 1131L4527.6 1400ZM4974.6 1400L4762.6 1400L4588.6 1145L4799.6 1145L4974.6 1400ZM4527.6 765L4527.6 1152L4439.6 1061L4637.6 1061Q4699.6 1061 4730.1 1034Q4760.6 1007 4760.6 959L4760.6 959Q4760.6 910 4730.1 883Q4699.6 856 4637.6 856L4637.6 856L4439.6 856L4527.6 765Z"/><path fill="#FFFFFF" d="M5045.6 700H5303.6A26 26 0 0 1 5329.6 726V766A26 26 0 0 1 5303.6 792H5045.6A26 26 0 0 1 5019.6 766V726A26 26 0 0 1 5045.6 700Z"/><path fill="#FFFFFF" d="M5045.6 1308H5303.6A26 26 0 0 1 5329.6 1334V1374A26 26 0 0 1 5303.6 1400H5045.6A26 26 0 0 1 5019.6 1374V1334A26 26 0 0 1 5045.6 1308Z"/><path fill="#FFFFFF" d="M5750.6 1400L5419.6 1400L5419.6 700L5750.6 700Q5866.6 700 5954.6 743Q6042.6 786 6092.1 864Q6141.6 942 6141.6 1050L6141.6 1050Q6141.6 1157 6092.1 1235.5Q6042.6 1314 5954.6 1357Q5866.6 1400 5750.6 1400L5750.6 1400ZM5617.6 858L5617.6 1242L5742.6 1242Q5802.6 1242 5847.1 1219.5Q5891.6 1197 5916.6 1153.5Q5941.6 1110 5941.6 1050L5941.6 1050Q5941.6 989 5916.6 946Q5891.6 903 5847.1 880.5Q5802.6 858 5742.6 858L5742.6 858L5617.6 858Z"/><path fill="#FFFFFF" d="M2713.8 71.2L2713.8 71.2Q2702.0 71.2 2694.1 67.7Q2686.3 64.3 2686.3 56.5L2686.3 56.5Q2686.3 47.6 2693.6 42.7Q2701.0 37.8 2712.8 33.9L2712.8 33.9Q2741.2 26.0 2762.4 9.8Q2783.5-6.4 2796.2-34.8L2796.2-34.8Q2820.8-92.8 2843.3-146.3Q2865.9-199.8 2886.5-252.8Q2907.2-305.8 2928.3-360.8Q2949.4-415.8 2971.0-476.6L2971.0-476.6Q2981.8-507.1 2985.7-523.8Q2989.6-540.5 2992.6-548.3L2992.6-548.3Q3007.3-552.2 3020.1-556.2Q3032.8-560.1 3048.5-566.0L3048.5-566.0Q3062.3-572.8 3072.1-583.6Q3081.9-594.4 3086.8-600.3L3086.8-600.3Q3089.8-602.3 3092.7-602.8Q3095.7-603.3 3098.6-598.4L3098.6-598.4Q3101.5-592.5 3103.5-586.6Q3105.5-580.7 3107.4-573.8L3107.4-573.8Q3129.0-504.1 3152.1-432.9Q3175.2-361.8 3197.8-292.6Q3220.3-223.3 3241.4-160.0Q3262.6-96.7 3280.2-43.7L3280.2-43.7Q3289.1-17.2 3302.3-1.5Q3315.6 14.2 3331.8 22.6Q3348.0 30.9 3367.6 35.8L3367.6 35.8Q3380.4 38.8 3387.2 43.7Q3394.1 48.6 3394.1 57.4L3394.1 57.4Q3394.1 63.3 3387.7 66.3Q3381.3 69.2 3371.5 69.2L3371.5 69.2Q3353.9 69.2 3326.9 68.2Q3299.9 67.3 3271.4 65.8Q3242.9 64.3 3220.3 64.3L3220.3 64.3Q3200.7 64.3 3176.7 65.3Q3152.6 66.3 3128.5 67.3Q3104.5 68.2 3087.8 68.2L3087.8 68.2Q3078.0 68.2 3070.6 64.8Q3063.3 61.4 3063.3 54.5L3063.3 54.5Q3063.3 46.6 3071.1 41.2Q3079.0 35.8 3089.8 33.9L3089.8 33.9Q3125.1 28.0 3140.8 15.7Q3156.5 3.4 3152.6-20.1L3152.6-20.1Q3149.7-36.8 3143.8-59.9Q3137.9-83.0 3131.5-108.0Q3125.1-133.0 3118.2-153.6L3118.2-153.6Q3116.3-161.5 3112.3-164.9Q3108.4-168.4 3097.6-168.4L3097.6-168.4L2920.9-168.4Q2914.0-168.4 2910.1-163.9Q2906.2-159.5 2904.2-150.7L2904.2-150.7Q2900.3-137.9 2894.9-121.7Q2889.5-105.5 2884.1-88.4Q2878.7-71.2 2874.3-56.4Q2869.9-41.7 2867.9-30.9L2867.9-30.9Q2863.0-4.4 2877.2 10.8Q2891.5 26.0 2926.8 34.9L2926.8 34.9Q2953.3 41.7 2953.3 55.5L2953.3 55.5Q2953.3 61.4 2946.9 64.8Q2940.5 68.2 2928.8 68.2L2928.8 68.2Q2906.2 68.2 2881.6 66.8Q2857.1 65.3 2827.6 65.3L2827.6 65.3Q2798.2 65.3 2770.2 68.2Q2742.2 71.2 2713.8 71.2ZM2947.4-213.5L2947.4-213.5L3083.9-213.5Q3097.6-213.5 3097.6-219.4L3097.6-219.4Q3097.6-222.4 3097.1-224.3Q3096.6-226.3 3095.7-230.2L3095.7-230.2L3026.9-457.0Q3023.0-470.7 3020.1-470.7L3020.1-470.7Q3018.1-470.7 3013.2-458.0L3013.2-458.0L2930.7-230.2Q2928.8-225.3 2928.8-222.4L2928.8-222.4Q2928.8-217.5 2934.2-215.5Q2939.6-213.5 2947.4-213.5ZM3431.4 69.2L3431.4 69.2Q3423.6 69.2 3417.7 65.8Q3411.8 62.3 3411.8 56.5L3411.8 56.5Q3411.8 48.6 3418.2 44.7Q3424.5 40.7 3434.4 37.8L3434.4 37.8Q3455.0 31.9 3463.3 23.6Q3471.7 15.2 3471.7 0.5L3471.7 0.5L3471.7-220.4Q3471.7-243.0 3465.3-258.2Q3458.9-273.4 3438.3-278.3L3438.3-278.3Q3434.4-280.3 3430.4-283.7Q3426.5-287.2 3426.5-294.0L3426.5-294.0Q3426.5-306.8 3437.3-309.7L3437.3-309.7Q3466.8-317.6 3501.1-330.8Q3535.5-344.1 3559.0-356.9L3559.0-356.9Q3564.0-359.8 3569.8-362.8Q3575.7-365.7 3578.7-365.7L3578.7-365.7Q3586.5-365.7 3586.5-355.9L3586.5-355.9Q3586.5-352.0 3586.0-338.2Q3585.6-324.5 3585.1-308.3Q3584.6-292.1 3583.6-279.3L3583.6-279.3Q3583.6-273.4 3586.5-273.4L3586.5-273.4Q3602.2-294.0 3621.9-311.7Q3641.5-329.4 3663.6-341.2Q3685.7-352.9 3708.3-352.9L3708.3-352.9Q3736.7-352.9 3751.0-341.2Q3765.2-329.4 3765.2-311.7L3765.2-311.7Q3765.2-298.0 3757.9-282.2Q3750.5-266.5 3739.2-255.3Q3727.9-244.0 3714.2-244.0L3714.2-244.0Q3706.3-244.0 3697.5-247.4Q3688.6-250.8 3679.8-255.7L3679.8-255.7Q3671.0-259.7 3661.6-263.6Q3652.3-267.5 3644.5-267.5L3644.5-267.5Q3619.9-267.5 3600.3-249.4Q3580.6-231.2 3580.6-178.2L3580.6-178.2L3580.6-5.4Q3580.6 12.3 3593.4 21.6Q3606.2 30.9 3632.7 38.8L3632.7 38.8Q3643.5 41.7 3648.9 45.2Q3654.3 48.6 3654.3 56.5L3654.3 56.5Q3654.3 69.2 3636.6 69.2L3636.6 69.2Q3607.2 69.2 3581.1 66.8Q3555.1 64.3 3529.6 64.3L3529.6 64.3Q3512.9 64.3 3497.7 65.3Q3482.5 66.3 3466.8 67.7Q3451.1 69.2 3431.4 69.2ZM3812.3 69.2L3812.3 69.2Q3804.5 69.2 3798.6 65.8Q3792.7 62.3 3792.7 56.5L3792.7 56.5Q3792.7 48.6 3799.1 44.7Q3805.5 40.7 3815.3 37.8L3815.3 37.8Q3835.9 31.9 3844.2 23.6Q3852.6 15.2 3852.6 0.5L3852.6 0.5L3852.6-220.4Q3852.6-243.0 3846.2-258.2Q3839.8-273.4 3819.2-278.3L3819.2-278.3Q3815.3-280.3 3811.4-283.7Q3807.4-287.2 3807.4-294.0L3807.4-294.0Q3807.4-306.8 3818.2-309.7L3818.2-309.7Q3847.7-317.6 3882.0-330.8Q3916.4-344.1 3940.0-356.9L3940.0-356.9Q3944.9-359.8 3950.8-362.8Q3956.7-365.7 3959.6-365.7L3959.6-365.7Q3967.5-365.7 3967.5-355.9L3967.5-355.9Q3967.5-352.0 3967.0-338.2Q3966.5-324.5 3966.0-308.3Q3965.5-292.1 3964.5-279.3L3964.5-279.3Q3964.5-273.4 3967.5-273.4L3967.5-273.4Q3983.2-294.0 4002.8-311.7Q4022.4-329.4 4044.5-341.2Q4066.6-352.9 4089.2-352.9L4089.2-352.9Q4117.7-352.9 4131.9-341.2Q4146.1-329.4 4146.1-311.7L4146.1-311.7Q4146.1-298.0 4138.8-282.2Q4131.4-266.5 4120.1-255.3Q4108.8-244.0 4095.1-244.0L4095.1-244.0Q4087.2-244.0 4078.4-247.4Q4069.6-250.8 4060.7-255.7L4060.7-255.7Q4051.9-259.7 4042.6-263.6Q4033.2-267.5 4025.4-267.5L4025.4-267.5Q4000.8-267.5 3981.2-249.4Q3961.6-231.2 3961.6-178.2L3961.6-178.2L3961.6-5.4Q3961.6 12.3 3974.3 21.6Q3987.1 30.9 4013.6 38.8L4013.6 38.8Q4024.4 41.7 4029.8 45.2Q4035.2 48.6 4035.2 56.5L4035.2 56.5Q4035.2 69.2 4017.5 69.2L4017.5 69.2Q3988.1 69.2 3962.1 66.8Q3936.0 64.3 3910.5 64.3L3910.5 64.3Q3893.8 64.3 3878.6 65.3Q3863.4 66.3 3847.7 67.7Q3832.0 69.2 3812.3 69.2ZM4358.2 80.0L4358.2 80.0Q4304.2 80.0 4263.0 52.5Q4221.7 25.0 4198.2-23.6Q4174.6-72.2 4174.6-134.0L4174.6-134.0Q4174.6-193.9 4202.6-243.5Q4230.6-293.0 4277.7-322.5Q4324.8-352.0 4380.8-352.0L4380.8-352.0Q4422.0-352.0 4454.4-334.8Q4486.8-317.6 4505.9-287.6Q4525.1-257.7 4525.1-220.4L4525.1-220.4Q4525.1-185.1 4494.7-185.1L4494.7-185.1L4295.4-185.1Q4281.6-185.1 4275.2-177.7Q4268.9-170.3 4268.9-150.7L4268.9-150.7Q4268.9-109.5 4287.0-76.1Q4305.2-42.7 4335.6-23.1Q4366.0-3.4 4405.3-3.4L4405.3-3.4Q4433.8-3.4 4457.8-14.7Q4481.9-26.0 4503.5-45.6L4503.5-45.6Q4507.4-48.6 4510.4-51.0Q4513.3-53.5 4516.3-53.5L4516.3-53.5Q4526.1-53.5 4526.1-41.7L4526.1-41.7Q4526.1-28.0 4514.3-8.3L4514.3-8.3Q4502.5 14.2 4480.4 34.9Q4458.3 55.5 4426.9 67.7Q4395.5 80.0 4358.2 80.0ZM4295.4-223.3L4295.4-223.3L4365.1-223.3Q4390.6-223.3 4403.4-224.3Q4416.1-225.3 4427.9-228.3L4427.9-228.3Q4432.8-229.2 4434.8-236.6Q4436.7-244.0 4436.7-253.8L4436.7-253.8Q4436.7-280.3 4416.6-298.4Q4396.5-316.6 4367.0-316.6L4367.0-316.6Q4346.4-316.6 4326.8-304.3Q4307.1-292.1 4294.4-273.4Q4281.6-254.8 4282.6-235.1L4282.6-235.1Q4282.6-223.3 4295.4-223.3ZM4755.8 350L4755.8 350Q4663.5 350 4611.5 319.6Q4559.5 289.1 4559.5 236.1L4559.5 236.1Q4559.5 208.6 4566.8 190.5Q4574.2 172.3 4596.8 156.6L4596.8 156.6Q4613.5 143.8 4633.1 128.6Q4652.7 113.4 4669.4 100.6L4669.4 100.6L4715.6 112.4Q4679.2 134.0 4661.6 157.1Q4643.9 180.2 4643.9 211.6L4643.9 211.6Q4643.9 250.8 4677.8 277.4Q4711.6 303.9 4763.7 303.9L4763.7 303.9Q4827.5 303.9 4857.9 277.4L4857.9 277.4Q4878.5 259.7 4890.3 235.1Q4902.1 210.6 4902.1 185.1L4902.1 185.1Q4902.1 166.4 4889.8 155.1Q4877.5 143.8 4848.1 136.5Q4818.6 129.1 4767.6 125.2L4767.6 125.2Q4668.4 116.3 4627.7 91.3Q4586.9 66.3 4586.9 22.1L4586.9 22.1Q4586.9 13.3 4592.3 3.9Q4597.7-5.4 4612.5-15.2L4612.5-15.2Q4630.1-29.0 4642.4-37.8Q4654.7-46.6 4662.5-54.5Q4670.4-62.3 4674.3-70.2L4674.3-70.2L4717.5-52.5Q4696.9-45.6 4683.6-33.4Q4670.4-21.1 4670.4-11.3L4670.4-11.3Q4670.4-0.5 4684.1 7.9Q4697.9 16.2 4727.3 21.1Q4756.8 26.0 4806.9 29.9L4806.9 29.9Q4908.0 36.8 4954.6 60.9Q5001.2 84.9 5001.2 131.1L5001.2 131.1Q5001.2 171.3 4979.6 210.1Q4958.0 248.9 4922.7 280.8Q4887.4 312.7 4844.2 331.3Q4801.0 350 4755.8 350ZM4768.6-71.2L4768.6-71.2Q4801.0-71.2 4821.6-107.0Q4842.2-142.8 4842.2-199.8L4842.2-199.8Q4842.2-233.2 4831.9-259.7Q4821.6-286.2 4803.9-301.4Q4786.2-316.6 4763.7-316.6L4763.7-316.6Q4743.0-316.6 4725.9-300.9Q4708.7-285.2 4698.9-259.2Q4689.0-233.2 4689.0-200.8L4689.0-200.8Q4689.0-164.4 4699.4-135.0Q4709.7-105.5 4728.3-88.4Q4747.0-71.2 4768.6-71.2ZM4759.7-30.9L4759.7-30.9Q4716.5-30.9 4676.8-52.0Q4637.0-73.1 4611.5-109.0Q4586.0-144.8 4586.0-190.0L4586.0-190.0Q4586.0-238.1 4612.5-274.9Q4639.0-311.7 4682.2-332.8Q4725.4-353.9 4774.5-353.9L4774.5-353.9Q4803.9-353.9 4829.4-346.6Q4855.0-339.2 4883.4-334.3L4883.4-334.3Q4904.1-329.4 4920.7-327.4Q4937.4-325.4 4957.1-325.4L4957.1-325.4Q4970.8-325.4 4987.0-326.9Q5003.2-328.4 5011.1-328.4L5011.1-328.4Q5025.8-328.4 5025.8-308.8L5025.8-308.8Q5025.8-294.0 5014.0-279.3L5014.0-279.3Q5009.1-273.4 5003.2-273.4L5003.2-273.4L4976.7-273.4Q4951.2-273.4 4944.3-265.6L4944.3-265.6Q4942.3-262.6 4941.4-258.7Q4940.4-254.8 4939.9-245.9Q4939.4-237.1 4939.4-219.4L4939.4-219.4Q4939.4-168.4 4914.4-125.7Q4889.3-83.0 4848.6-56.9Q4807.8-30.9 4759.7-30.9ZM5056.2 69.2L5056.2 69.2Q5048.4 69.2 5042.5 66.3Q5036.6 63.3 5036.6 57.4L5036.6 57.4Q5036.6 49.6 5043.0 45.7Q5049.3 41.7 5059.2 37.8L5059.2 37.8Q5073.9 32.9 5086.2 27.0Q5098.4 21.1 5098.4 0.5L5098.4 0.5L5098.4-478.6Q5098.4-506.1 5090.1-525.2Q5081.7-544.4 5057.2-549.3L5057.2-549.3Q5047.4-551.3 5047.4-564.0L5047.4-564.0Q5047.4-575.8 5056.2-577.8L5056.2-577.8Q5080.8-582.7 5106.8-591.5Q5132.8-600.3 5155.9-609.2Q5178.9-618.0 5194.6-622.9L5194.6-622.9Q5201.5-625.9 5204.5-625.9L5204.5-625.9Q5209.4-625.9 5211.3-622.4Q5213.3-619.0 5213.3-616.0L5213.3-616.0Q5213.3-608.2 5210.4-586.1Q5207.4-564.0 5207.4-526.7L5207.4-526.7L5207.4-0.5Q5207.4 20.1 5219.2 26.0Q5231.0 31.9 5245.7 36.8L5245.7 36.8Q5255.5 40.7 5261.9 44.7Q5268.3 48.6 5268.3 56.5L5268.3 56.5Q5268.3 62.3 5262.4 65.3Q5256.5 68.2 5248.6 68.2L5248.6 68.2Q5230.0 68.2 5214.3 66.8Q5198.6 65.3 5183.4 64.8Q5168.1 64.3 5150.5 64.3L5150.5 64.3Q5133.8 64.3 5119.5 65.3Q5105.3 66.3 5090.6 67.7Q5075.9 69.2 5056.2 69.2ZM5516.7 80.0L5516.7 80.0Q5458.7 80.0 5412.6 54.0Q5366.5 28.0 5339.0-18.2Q5311.5-64.3 5311.5-122.2L5311.5-122.2Q5311.5-167.4 5329.1-208.6Q5346.8-249.9 5377.3-282.2Q5407.7-314.6 5448.9-333.8Q5490.2-352.9 5537.3-352.9L5537.3-352.9Q5597.2-352.9 5644.8-325.0Q5692.4-297.0 5720.9-250.8Q5749.3-204.7 5749.3-149.7L5749.3-149.7Q5749.3-88.8 5723.3-36.3Q5697.3 16.2 5645.8 48.1Q5594.2 80.0 5516.7 80.0ZM5536.3 41.7L5536.3 41.7Q5560.8 41.7 5580.0 31.9Q5599.1 22.1 5610.9 1.5L5610.9 1.5Q5622.7-19.1 5627.1-53.0Q5631.5-86.9 5631.5-126.2L5631.5-126.2Q5631.5-178.2 5617.8-220.4Q5604.0-262.6 5579.5-288.1Q5555.0-313.7 5521.6-313.7L5521.6-313.7Q5502.9-313.7 5487.7-307.3Q5472.5-300.9 5459.7-286.2L5459.7-286.2Q5442.1-265.6 5435.7-229.7Q5429.3-193.9 5429.3-146.8L5429.3-146.8Q5429.3-99.6 5443.5-56.4Q5457.8-13.2 5481.8 14.2Q5505.9 41.7 5536.3 41.7ZM5931.0 80.0L5931.0 80.0Q5899.5 80.0 5870.6 71.7Q5841.6 63.3 5818.1 46.6L5818.1 46.6Q5811.2 32.9 5807.8 3.4Q5804.3-26.0 5804.3-54.5L5804.3-54.5Q5804.3-66.3 5821.0-66.3L5821.0-66.3Q5827.9-66.3 5832.8-62.3Q5837.7-58.4 5839.7-53.5L5839.7-53.5Q5856.4-10.3 5881.9 15.7Q5907.4 41.7 5939.8 41.7L5939.8 41.7Q5967.3 41.7 5983.0 24.5Q5998.7 7.4 5998.7-15.2L5998.7-15.2Q5998.7-41.7 5979.6-59.4Q5960.4-77.1 5927.0-95.7L5927.0-95.7Q5896.6-112.4 5872.6-131.1Q5848.5-149.7 5834.8-173.8Q5821.0-197.8 5821.0-230.2L5821.0-230.2Q5821.0-266.5 5839.7-294.0Q5858.3-321.5 5892.2-337.2Q5926.1-352.9 5970.2-352.9L5970.2-352.9Q6001.7-352.9 6026.7-346.1Q6051.7-339.2 6061.5-332.3L6061.5-332.3Q6069.4-322.5 6074.3-296.5Q6079.2-270.5 6079.2-242.0L6079.2-242.0Q6079.2-233.2 6064.5-233.2L6064.5-233.2Q6057.6-233.2 6050.7-237.1Q6043.9-241.0 6041.9-244.9L6041.9-244.9Q6029.1-281.3 6009.5-299.9Q5989.9-318.6 5964.3-318.6L5964.3-318.6Q5941.8-318.6 5923.6-304.3Q5905.4-290.1 5905.4-264.6L5905.4-264.6Q5905.4-244.0 5922.6-227.3Q5939.8-210.6 5972.2-192.9L5972.2-192.9Q6034.0-159.5 6061.5-129.6Q6089.0-99.6 6089.0-49.6L6089.0-49.6Q6089.0 10.3 6047.8 45.2Q6006.6 80.0 5931.0 80.0Z"/>
<path fill="#FFFFFF" fill-rule="evenodd" d="M578.8 -625.9L1308.1 -93.4L2005.6 -625.9L2497.6 -625.9L2523.6 1284.2L1820.4 1284.2L1901.4 152.6L1308.1 601.2L674.3 91.9L578.8 91.9ZM2034.5 91.9a133.12818326601268 133.12818326601268 0 1 0 266.25636653202537 0a133.12818326601268 133.12818326601268 0 1 0 -266.25636653202537 0Z"/><path fill="#FFFFFF" fill-rule="evenodd" d="M173.6 -625.9H500.7A173.6 173.6 0 0 1 674.3 -452.2V592.5A173.6 173.6 0 0 1 500.7 766.2H173.6A173.6 173.6 0 0 1 0 592.5V-452.2A173.6 173.6 0 0 1 173.6 -625.9ZM202.6 416L243.1 416L243.1 10.8L202.6 10.8ZM202.6 439.2L347.3 439.2L347.3 398.6L202.6 398.6ZM306.8 766.2L347.3 766.2L347.3 398.6L306.8 398.6Z"/><path fill="#FFFFFF" fill-rule="evenodd" d="M295.2 748.8H358.9A28.9 28.9 0 0 1 387.8 777.8V1093.2A28.9 28.9 0 0 1 358.9 1122.2H295.2A28.9 28.9 0 0 1 266.3 1093.2V777.8A28.9 28.9 0 0 1 295.2 748.8ZM306.8 1075.9L347.3 1075.9L347.3 748.8L306.8 748.8Z"/><path fill="#FFFFFF" fill-rule="evenodd" d="M301 1110.6H457.3A34.7 34.7 0 0 1 492 1145.3V1191.6A34.7 34.7 0 0 1 457.3 1226.4H301A34.7 34.7 0 0 1 266.3 1191.6V1145.3A34.7 34.7 0 0 1 301 1110.6ZM306.8 1191.6L451.5 1191.6L451.5 1151.1L306.8 1151.1Z"/><path fill="#FFFFFF" fill-rule="evenodd" d="M-121.6 1168.5H735.1A52.1 52.1 0 0 1 787.2 1220.6V1249.5A52.1 52.1 0 0 1 735.1 1301.6H-121.6A52.1 52.1 0 0 1 -173.6 1249.5V1220.6A52.1 52.1 0 0 1 -121.6 1168.5ZM-98.4 1255.3L711.9 1255.3L711.9 1220.6L-98.4 1220.6Z"/>
<path fill="#C8602D" d="M2193.1 -775.8L2379.5 -775.8L2379.5 -982.4L2193.1 -982.4ZM2193.1 -897.3L2193.1 -869L532.5 -735.8L532.5 -776.4ZM5069.6 1308L5078.2 1308L5069.6 1304.4ZM5130.6 1308L5279.6 1308L5279.6 1287.6L5069.6 1199.4L5069.6 1282.4ZM5279.6 1265.6L5279.6 1182.6L5069.6 1094.4L5069.6 1177.4ZM5279.6 1160.6L5279.6 1077.6L5069.6 989.4L5069.6 1072.4ZM5279.6 1055.6L5279.6 972.6L5069.6 884.4L5069.6 967.4ZM5279.6 950.6L5279.6 867.6L5099.6 792L5069.6 792L5069.6 862.4ZM5279.6 845.6L5279.6 792L5152 792ZM3676.6 520L3571.6 520L3571.6 380L3673.8 380L3673.8 401.8L3597.6 401.8L3597.6 498.2L3676.6 498.2L3676.6 520ZM3665.2 459.6L3595.6 459.6L3595.6 438.2L3665.2 438.2L3665.2 459.6ZM3838.2 520L3808.6 520L3867.6 438.8L3867.6 458.4L3811.4 380L3840.8 380L3882.6 438L3870.6 438.2L3912.0 380L3940.2 380L3884.4 457L3884.4 438.2L3943.8 520L3913.8 520L3869.8 458.4L3881.6 458.4L3838.2 520ZM4110.2 520L4084.2 520L4084.2 380L4141.8 380Q4160.4 380 4173.7 386Q4187.0 392 4194.2 403.2Q4201.4 414.4 4201.4 429.8L4201.4 429.8Q4201.4 445.2 4194.2 456.4Q4187.0 467.6 4173.7 473.6Q4160.4 479.6 4141.8 479.6L4141.8 479.6L4098.6 479.6L4110.2 467.4L4110.2 520ZM4110.2 389.2L4110.2 470.2L4098.6 457.6L4140.6 457.6Q4157.8 457.6 4166.5 450.3Q4175.2 443 4175.2 429.8L4175.2 429.8Q4175.2 416.4 4166.5 409.2Q4157.8 402 4140.6 402L4140.6 402L4098.6 402L4110.2 389.2ZM4375.4 520L4349.4 520L4349.4 380L4406.8 380Q4434.8 380 4450.7 393.2Q4466.6 406.4 4466.6 429.8L4466.6 429.8Q4466.6 445.2 4459.4 456.3Q4452.2 467.4 4438.9 473.3Q4425.6 479.2 4407.0 479.2L4407.0 479.2L4363.8 479.2L4375.4 467.4L4375.4 520ZM4469.0 520L4441.0 520L4405.6 469.2L4433.4 469.2L4469.0 520ZM4375.4 389.2L4375.4 470.2L4363.8 457.8L4405.8 457.8Q4423.0 457.8 4431.7 450.4Q4440.4 443 4440.4 429.8L4440.4 429.8Q4440.4 416.4 4431.7 409.2Q4423.0 402 4405.8 402L4405.8 402L4363.8 402L4375.4 389.2ZM4720.6 520L4615.6 520L4615.6 380L4717.8 380L4717.8 401.8L4641.6 401.8L4641.6 498.2L4720.6 498.2L4720.6 520ZM4709.2 459.6L4639.6 459.6L4639.6 438.2L4709.2 438.2L4709.2 459.6ZM4913.0 522L4913.0 522Q4896.6 522 4881.6 517.3Q4866.6 512.6 4857.8 505.2L4857.8 505.2L4866.8 485Q4875.2 491.6 4887.6 496Q4900.0 500.4 4913.0 500.4L4913.0 500.4Q4924.0 500.4 4930.8 498Q4937.6 495.6 4940.8 491.5Q4944.0 487.4 4944.0 482.2L4944.0 482.2Q4944.0 475.8 4939.4 471.9Q4934.8 468 4927.5 465.7Q4920.2 463.4 4911.3 461.4Q4902.4 459.4 4893.5 456.7Q4884.6 454 4877.3 449.7Q4870.0 445.4 4865.4 438.2Q4860.8 431 4860.8 419.8L4860.8 419.8Q4860.8 408.4 4866.9 398.9Q4873.0 389.4 4885.5 383.7Q4898.0 378 4917.2 378L4917.2 378Q4929.8 378 4942.2 381.2Q4954.6 384.4 4963.8 390.4L4963.8 390.4L4955.6 410.6Q4946.2 405 4936.2 402.3Q4926.2 399.6 4917.0 399.6L4917.0 399.6Q4906.2 399.6 4899.5 402.2Q4892.8 404.8 4889.7 409Q4886.6 413.2 4886.6 418.6L4886.6 418.6Q4886.6 425 4891.1 428.9Q4895.6 432.8 4902.9 435Q4910.2 437.2 4919.2 439.3Q4928.2 441.4 4937.1 444Q4946.0 446.6 4953.3 450.8Q4960.6 455 4965.1 462.2Q4969.6 469.4 4969.6 480.4L4969.6 480.4Q4969.6 491.6 4963.5 501.1Q4957.4 510.6 4944.8 516.3Q4932.2 522 4913.0 522ZM5158.8 522L5158.8 522Q5142.4 522 5127.4 517.3Q5112.4 512.6 5103.6 505.2L5103.6 505.2L5112.6 485Q5121.0 491.6 5133.4 496Q5145.8 500.4 5158.8 500.4L5158.8 500.4Q5169.8 500.4 5176.6 498Q5183.4 495.6 5186.6 491.5Q5189.8 487.4 5189.8 482.2L5189.8 482.2Q5189.8 475.8 5185.2 471.9Q5180.6 468 5173.3 465.7Q5166.0 463.4 5157.1 461.4Q5148.2 459.4 5139.3 456.7Q5130.4 454 5123.1 449.7Q5115.8 445.4 5111.2 438.2Q5106.6 431 5106.6 419.8L5106.6 419.8Q5106.6 408.4 5112.7 398.9Q5118.8 389.4 5131.3 383.7Q5143.8 378 5163.0 378L5163.0 378Q5175.6 378 5188.0 381.2Q5200.4 384.4 5209.6 390.4L5209.6 390.4L5201.4 410.6Q5192.0 405 5182.0 402.3Q5172.0 399.6 5162.8 399.6L5162.8 399.6Q5152.0 399.6 5145.3 402.2Q5138.6 404.8 5135.5 409Q5132.4 413.2 5132.4 418.6L5132.4 418.6Q5132.4 425 5136.9 428.9Q5141.4 432.8 5148.7 435Q5156.0 437.2 5165.0 439.3Q5174.0 441.4 5182.9 444Q5191.8 446.6 5199.1 450.8Q5206.4 455 5210.9 462.2Q5215.4 469.4 5215.4 480.4L5215.4 480.4Q5215.4 491.6 5209.3 501.1Q5203.2 510.6 5190.6 516.3Q5178.0 522 5158.8 522ZM3414.8 440H3472.8A10 10 0 0 1 3482.8 450V450A10 10 0 0 1 3472.8 460H3414.8A10 10 0 0 1 3404.8 450V450A10 10 0 0 1 3414.8 440ZM3286.8 440H3344.8A10 10 0 0 1 3354.8 450V450A10 10 0 0 1 3344.8 460H3286.8A10 10 0 0 1 3276.8 450V450A10 10 0 0 1 3286.8 440ZM3158.8 440H3216.8A10 10 0 0 1 3226.8 450V450A10 10 0 0 1 3216.8 460H3158.8A10 10 0 0 1 3148.8 450V450A10 10 0 0 1 3158.8 440ZM3030.8 440H3088.8A10 10 0 0 1 3098.8 450V450A10 10 0 0 1 3088.8 460H3030.8A10 10 0 0 1 3020.8 450V450A10 10 0 0 1 3030.8 440ZM2902.8 440H2960.8A10 10 0 0 1 2970.8 450V450A10 10 0 0 1 2960.8 460H2902.8A10 10 0 0 1 2892.8 450V450A10 10 0 0 1 2902.8 440ZM2774.8 440H2832.8A10 10 0 0 1 2842.8 450V450A10 10 0 0 1 2832.8 460H2774.8A10 10 0 0 1 2764.8 450V450A10 10 0 0 1 2774.8 440ZM2646.8 440H2704.8A10 10 0 0 1 2714.8 450V450A10 10 0 0 1 2704.8 460H2646.8A10 10 0 0 1 2636.8 450V450A10 10 0 0 1 2646.8 440ZM5302.4 440H5360.4A10 10 0 0 1 5370.4 450V450A10 10 0 0 1 5360.4 460H5302.4A10 10 0 0 1 5292.4 450V450A10 10 0 0 1 5302.4 440ZM5430.4 440H5488.4A10 10 0 0 1 5498.4 450V450A10 10 0 0 1 5488.4 460H5430.4A10 10 0 0 1 5420.4 450V450A10 10 0 0 1 5430.4 440ZM5558.4 440H5616.4A10 10 0 0 1 5626.4 450V450A10 10 0 0 1 5616.4 460H5558.4A10 10 0 0 1 5548.4 450V450A10 10 0 0 1 5558.4 440ZM5686.4 440H5744.4A10 10 0 0 1 5754.4 450V450A10 10 0 0 1 5744.4 460H5686.4A10 10 0 0 1 5676.4 450V450A10 10 0 0 1 5686.4 440ZM5814.4 440H5872.4A10 10 0 0 1 5882.4 450V450A10 10 0 0 1 5872.4 460H5814.4A10 10 0 0 1 5804.4 450V450A10 10 0 0 1 5814.4 440ZM5942.4 440H6000.4A10 10 0 0 1 6010.4 450V450A10 10 0 0 1 6000.4 460H5942.4A10 10 0 0 1 5932.4 450V450A10 10 0 0 1 5942.4 440ZM6070.4 440H6128.4A10 10 0 0 1 6138.4 450V450A10 10 0 0 1 6128.4 460H6070.4A10 10 0 0 1 6060.4 450V450A10 10 0 0 1 6070.4 440Z"/>
</svg>
